<svg width="60" height="60" viewBox="0 0 60 60" fill="none" xmlns="http://www.w3.org/2000/svg">
<g clip-path="url(#clip0_202_52)">
<path d="M76.8 -7.19995H-16.8V72H76.8V-7.19995Z" fill="#1B1B29"/>
<path fill-rule="evenodd" clip-rule="evenodd" d="M48.8117 19.249V15.8611L31.7721 -1.55371L14.5225 15.8611V19.2593L31.7774 2.70016L48.8117 19.249Z" fill="white"/>
<path fill-rule="evenodd" clip-rule="evenodd" d="M25.0705 -7.19995V37.8891H50.4536V-7.19995H25.0705Z" fill="#1B1B29"/>
<path fill-rule="evenodd" clip-rule="evenodd" d="M11.5705 -7.19995V37.8891H18.6523V-7.19995H11.5705Z" fill="#1B1B29"/>
<path fill-rule="evenodd" clip-rule="evenodd" d="M14.4598 31.6975H48.7488V22.6205L31.709 5.20557L14.4598 22.6205V31.6975Z" fill="white"/>
<path fill-rule="evenodd" clip-rule="evenodd" d="M13.568 36.6151H49.6399V27.5382L31.7141 10.1233L13.568 27.5382V36.6151Z" fill="#1B1B29"/>
<path fill-rule="evenodd" clip-rule="evenodd" d="M58.8993 33.0069C58.479 34.3393 57.3637 35.1117 55.5588 36.4208L37.5896 50.3563C35.9925 51.6354 31.9294 55.4421 30.0583 55.1153C27.9608 54.749 19.6335 47.4115 16.8646 45.4467L0.805054 33.3574C4.48826 29.7121 9.3362 28.6043 13.3233 28.8574L13.0819 34.6809C19.5775 35.6709 24.6798 37.9496 27.044 38.2021C32.8857 38.826 38.4109 35.3377 40.5194 41.4004C36.2593 42.9434 32.0415 44.6322 27.6379 46.0724C27.814 46.4501 27.8491 46.51 28.1627 47.1348C32.8871 45.6056 37.6227 44.1094 42.2287 42.5969C42.1458 40.7973 41.6015 39.7669 40.8287 38.5483C45.2229 36.3352 52.9509 30.8273 58.8993 33.0069ZM56.0523 41.8711C56.0523 41.8711 57.5817 42.6801 57.3383 42.9573C57.2714 43.0347 45.9255 46.9168 44.3811 47.5095L56.0523 41.8711ZM59.1943 38.8993C58.3443 39.79 43.9803 47.1613 42.5564 47.507L50.4189 41.2123C53.7213 38.6009 56.5321 35.3214 59.1943 38.8993Z" fill="#0265FF"/>
<path fill-rule="evenodd" clip-rule="evenodd" d="M48.7488 31.9663V30.7571L31.7091 13.3423L14.4598 30.7571V32.5153C20.2966 33.5905 24.8498 35.5697 27.0443 35.804C30.4676 36.1698 37.7674 34.0601 39.8921 36.707C42.742 35.0571 45.7088 33.3316 48.7488 31.9663Z" fill="white"/>
<path fill-rule="evenodd" clip-rule="evenodd" d="M12.999 20.7495V34.6545H15.4638V20.7495H12.999Z" fill="#1B1B29"/>
<path fill-rule="evenodd" clip-rule="evenodd" d="M47.8318 20.7495V33.4284H50.2966V20.7495H47.8318Z" fill="#1B1B29"/>
<path fill-rule="evenodd" clip-rule="evenodd" d="M27.6263 22.9182V32.5032H35.5824V22.9182H27.6263Z" fill="#1B1B29"/>
<path fill-rule="evenodd" clip-rule="evenodd" d="M27.6263 27.7109V32.5033H35.5824V27.7109H27.6263Z" fill="#1B1B29" stroke="white" stroke-width="0.72"/>
<path d="M27.6263 22.9182V32.5032H31.6044V22.9182H27.6263Z" stroke="white" stroke-width="0.72"/>
<path d="M35.5822 22.9182V32.5032H31.6043V22.9182H35.5822Z" stroke="white" stroke-width="0.72"/>
</g>
<defs>
<clipPath id="clip0_202_52">
<rect width="60" height="60" fill="white"/>
</clipPath>
</defs>
</svg>
